<?xml version="1.0" standalone="no"?>
<!DOCTYPE svg PUBLIC "-//W3C//DTD SVG 20010904//EN"
 "http://www.w3.org/TR/2001/REC-SVG-20010904/DTD/svg10.dtd">
<svg version="1.0" xmlns="http://www.w3.org/2000/svg"
 width="1380.000000pt" height="1380.000000pt" viewBox="0 0 1380.000000 1380.000000"
 preserveAspectRatio="xMidYMid meet">
<metadata>
Created by potrace 1.14, written by Peter Selinger 2001-2017
</metadata>
<g transform="translate(0.000000,1380.000000) scale(0.100000,-0.100000)"
fill="#000000" stroke="none">
<path d="M7220 13754 c-187 -36 -392 -169 -639 -414 -211 -209 -400 -455 -456
-591 -14 -35 -30 -71 -35 -80 -4 -9 -14 -36 -21 -60 -7 -24 -14 -48 -15 -54
-24 -85 -59 -256 -69 -335 -2 -14 -8 -56 -14 -95 -9 -63 -18 -133 -26 -205 -4
-37 -24 -170 -30 -205 -6 -31 -75 -236 -219 -655 -141 -411 -177 -507 -271
-715 -7 -16 -23 -55 -34 -85 -23 -59 -27 -69 -62 -145 -32 -70 -63 -117 -144
-218 -103 -130 -132 -185 -142 -276 -5 -44 -51 -127 -151 -271 -25 -36 -61
-87 -80 -115 -19 -27 -45 -62 -56 -76 -12 -14 -32 -41 -46 -59 -23 -31 -122
-150 -162 -194 -21 -23 -35 -15 -43 27 -4 17 -11 37 -15 42 -15 20 -102 248
-131 342 -17 54 -37 112 -45 130 -8 17 -14 36 -14 42 0 18 -84 191 -119 246
-63 100 -238 285 -325 344 -12 8 -23 17 -26 20 -10 12 -66 48 -120 78 -80 45
-203 87 -319 109 -13 3 -53 11 -88 18 -92 20 -323 17 -393 -4 -30 -9 -59 -17
-63 -18 -24 -3 -122 -57 -176 -97 -131 -97 -260 -244 -362 -415 -50 -82 -104
-193 -114 -230 0 -3 -9 -28 -18 -56 -10 -28 -19 -59 -21 -70 -3 -10 -9 -39
-15 -64 -19 -84 -21 -105 -32 -253 -10 -135 -3 -368 15 -494 48 -329 191 -727
369 -1026 68 -114 77 -127 136 -185 42 -43 43 -45 25 -61 -18 -17 -151 -133
-223 -196 -168 -146 -299 -277 -431 -431 -66 -77 -256 -351 -311 -449 -135
-242 -233 -433 -342 -665 -67 -143 -91 -195 -92 -200 -1 -3 -10 -23 -19 -45
-10 -22 -31 -71 -48 -110 -55 -130 -59 -140 -68 -160 -68 -152 -117 -306 -133
-413 -10 -65 -13 -172 -12 -350 3 -239 6 -307 20 -452 3 -30 8 -79 11 -109 2
-30 7 -70 9 -90 2 -20 9 -76 15 -126 5 -49 12 -101 15 -115 2 -14 12 -72 21
-130 21 -134 20 -130 34 -230 16 -115 41 -189 102 -295 29 -49 56 -94 61 -100
4 -5 31 -46 59 -90 177 -278 495 -739 527 -765 3 -3 33 -38 66 -79 237 -293
456 -478 802 -679 105 -61 329 -174 443 -225 100 -43 155 -67 170 -72 3 -1 19
-7 35 -14 17 -6 41 -16 55 -21 14 -5 39 -15 55 -21 17 -7 35 -13 40 -15 6 -1
78 -26 160 -54 174 -60 368 -118 539 -161 137 -35 146 -37 201 -49 58 -13 74
-17 130 -30 28 -6 59 -13 70 -15 74 -11 104 -18 130 -30 46 -21 215 -82 265
-96 25 -7 50 -14 55 -15 25 -7 147 -35 170 -39 151 -28 201 -34 370 -40 119
-4 154 -1 235 17 101 23 181 26 445 14 77 -3 205 -8 285 -11 80 -3 188 -9 240
-12 188 -13 531 -6 559 11 3 2 67 7 141 11 74 3 152 8 173 9 20 2 42 -3 47 -9
13 -15 95 -52 136 -60 187 -38 393 -32 659 20 100 20 106 21 192 45 121 34
380 133 393 151 6 8 34 16 80 23 19 3 46 8 60 11 14 3 50 9 80 15 30 6 66 12
80 15 14 3 57 12 95 20 61 13 168 37 215 49 8 2 62 16 120 30 58 15 112 29
120 33 8 3 20 7 25 8 6 0 17 4 25 7 8 3 74 25 145 48 260 85 563 227 800 375
44 27 89 57 99 67 11 10 26 18 33 18 7 0 13 3 13 8 0 4 17 18 38 32 20 14 39
27 42 30 3 3 34 27 70 55 95 73 101 78 125 100 12 11 41 36 66 56 120 99 376
355 519 519 36 41 70 80 76 86 5 6 26 31 45 54 18 24 45 57 60 74 86 105 227
307 255 366 4 8 10 17 13 20 15 12 163 300 175 340 5 14 9 27 10 30 52 117
132 385 155 515 6 33 13 71 16 85 3 13 7 42 10 65 3 22 8 51 10 65 37 204 46
559 20 790 -12 113 -14 124 -24 185 -12 69 -12 69 -40 195 -45 203 -180 591
-286 825 -13 28 -43 95 -68 150 -142 317 -399 780 -551 992 -193 270 -393 461
-703 670 -75 50 -90 64 -80 75 28 30 71 93 115 170 47 82 152 291 152 304 0 3
6 20 14 37 30 64 100 251 110 292 2 6 9 30 16 55 7 25 15 50 16 55 3 11 29
141 38 190 41 218 41 613 1 816 -26 134 -110 338 -192 466 -90 143 -219 287
-335 373 -125 94 -216 128 -366 138 -149 11 -250 -1 -457 -52 -187 -46 -338
-138 -510 -312 -201 -204 -241 -274 -365 -644 -29 -85 -56 -159 -61 -165 -5
-5 -9 -15 -9 -22 0 -7 -12 -38 -26 -70 -28 -64 -24 -64 -76 8 -82 113 -99 135
-106 145 -5 5 -15 21 -22 35 -7 13 -16 26 -19 29 -3 3 -33 46 -66 95 -33 50
-63 92 -67 95 -4 3 -12 17 -17 30 -6 14 -32 57 -56 95 -115 178 -124 197 -126
270 -1 38 -6 87 -10 109 -4 23 -10 58 -13 80 -4 21 -9 42 -12 47 -3 5 -7 17
-9 27 -6 34 -57 177 -67 190 -6 6 -8 12 -5 12 3 0 -8 27 -24 60 -16 33 -29 63
-29 65 0 6 -172 363 -200 415 -19 37 -119 259 -125 280 -1 3 -9 23 -19 45 -46
103 -114 318 -142 450 -23 104 -39 186 -49 240 -3 17 -12 71 -21 120 -9 50
-18 99 -19 110 -3 19 -62 377 -70 422 -2 12 -9 57 -15 100 -7 43 -14 87 -16
98 -3 11 -11 56 -19 100 -8 44 -17 91 -20 105 -3 14 -12 57 -20 95 -31 148
-45 203 -75 295 -17 52 -34 102 -37 110 -3 8 -7 17 -8 20 -1 3 -8 21 -17 40
-8 19 -20 52 -27 72 -8 23 -29 51 -59 74 -26 21 -49 42 -52 46 -23 32 -174 64
-240 52z"/>
</g>
</svg>
